Coordinates
version=1
nRows=11
nColumns=40
inDegrees=yes

Units are S.I. units (second, meters, Newtons, ...)
Angles are in degrees.

endheader
time	pelvis_tilt	pelvis_list	pelvis_rotation	pelvis_tx	pelvis_ty	pelvis_tz	hip_flexion_r	hip_adduction_r	hip_rotation_r	knee_angle_r	knee_angle_r_beta	ankle_angle_r	subtalar_angle_r	mtp_angle_r	hip_flexion_l	hip_adduction_l	hip_rotation_l	knee_angle_l	knee_angle_l_beta	ankle_angle_l	subtalar_angle_l	mtp_angle_l	lumbar_extension	lumbar_bending	lumbar_rotation	arm_flex_r	arm_add_r	arm_rot_r	elbow_flex_r	pro_sup_r	wrist_flex_r	wrist_dev_r	arm_flex_l	arm_add_l	arm_rot_l	elbow_flex_l	pro_sup_l	wrist_flex_l	wrist_dev_l
      0.00000000	      3.01807804	     -2.39174654	      1.48847256	     -1.19250368	      0.88661780	      1.02013314	     -7.77251071	      2.39921235	    -18.60194018	    -20.50878590	     -0.35794584	     14.72903627	      3.46595866	     -6.31642030	     19.68136937	      3.14576016	     13.43179258	    -12.28754207	     -0.21445807	     -2.67761980	     -3.49691028	     -8.54028806	    -12.35906621	      3.46537259	      6.42585212	     14.44343059	    -14.37525861	     17.52922272	     20.81908982	     89.95437384	      0.00000000	      0.00000000	     -1.59978297	      5.18878441	     -7.28969894	     19.13512929	     89.95437384	      0.00000000	      0.00000000
      0.01000000	      2.87384423	     -2.38585161	      1.34567289	     -1.18500078	      0.88590017	      1.01962829	     -8.02241696	      2.29804345	    -18.34346181	    -20.71523710	     -0.36154909	     14.72988361	      3.41579741	     -6.27594909	     19.79098050	      3.09534871	     13.08933256	    -12.32284139	     -0.21507416	     -2.63264385	     -3.53496480	     -8.48970637	    -12.19414785	      3.34622878	      6.50613183	     14.38750238	    -14.21665465	     17.53411611	     20.71973533	     89.95437384	      0.00000000	      0.00000000	     -1.56121158	      5.12704561	     -7.25817837	     18.74415340	     89.95437384	      0.00000000	      0.00000000
      0.02000000	      2.76749912	     -2.30989524	      1.12779466	     -1.17734000	      0.88527373	      1.01905965	     -8.30957245	      2.11395110	    -17.91348719	    -20.95229305	     -0.36568650	     14.71119547	      3.31148203	     -6.22349927	     19.78753088	      2.98685124	     12.56675584	    -12.61223955	     -0.22012511	     -3.14180105	     -3.38302552	     -8.35327137	    -12.05603645	      3.14363808	      6.58268440	     14.33587556	    -14.02814848	     17.50436469	     20.58899536	     89.95437384	      0.00000000	      0.00000000	     -1.51091158	      5.04685974	     -7.34998849	     18.23985493	     89.95437384	      0.00000000	      0.00000000
      0.03000000	      2.65017042	     -2.23901908	      0.87104082	     -1.16951188	      0.88465939	      1.01848792	     -8.53952543	      1.89800629	    -17.55182708	    -21.27664316	     -0.37134748	     14.57393161	      3.12795925	     -6.12477239	     19.82165231	      2.90650656	     12.15421378	    -13.37080335	     -0.23336454	     -4.49997200	     -2.82464523	     -7.99689877	    -11.90644626	      2.93389899	      6.71007245	     14.19879969	    -13.87086276	     17.43396848	     20.57442597	     89.95437384	      0.00000000	      0.00000000	     -1.48698200	      5.00054723	     -7.35046844	     17.96744663	     89.95437384	      0.00000000	      0.00000000
      0.04000000	      2.51960245	     -2.11242663	      0.66676885	     -1.16161595	      0.88412031	      1.01767227	     -8.72659733	      1.64700817	    -17.04297269	    -21.65969245	     -0.37803295	     14.43924306	      2.89813273	     -6.02877386	     19.77861373	      2.69754869	     11.67997767	    -14.10763776	     -0.24622473	     -6.25384042	     -2.25940190	     -7.59584303	    -11.72648193	      2.68766484	      6.66659364	     14.09344534	    -13.63799181	     17.36582962	     20.48189716	     89.95437384	      0.00000000	      0.00000000	     -1.45382480	      4.95782513	     -7.43965025	     17.52411794	     89.95437384	      0.00000000	      0.00000000
      0.05000000	      2.26446326	     -2.05711994	      0.44219746	     -1.15365976	      0.88354000	      1.01684690	     -8.70604143	      1.42743846	    -16.69638583	    -22.15660855	     -0.38670577	     14.05624504	      2.74912911	     -5.89596617	     19.80157702	      2.57618744	     11.26748816	    -14.62709663	     -0.25529100	     -6.44253467	     -2.21284645	     -7.41254758	    -11.43035645	      2.51794557	      6.55786651	     13.82132869	    -13.49586386	     17.29890332	     20.83376199	     89.95437384	      0.00000000	      0.00000000	     -1.71830031	      5.00994059	     -7.41957107	     17.71645781	     89.95437384	      0.00000000	      0.00000000
      0.06000000	      2.18084941	     -1.48254115	      0.35931883	     -1.14623076	      0.88375609	      1.01548729	     -8.77884375	      0.69508869	    -16.11324354	    -22.79098399	     -0.39777771	     13.83692006	      2.24014522	     -5.78566662	     19.60206163	      1.84162200	     10.86123050	    -14.80942385	     -0.25847321	     -7.10225786	     -2.29978051	     -7.30305581	    -11.37314367	      1.81613537	      6.32460072	     13.97251304	    -13.10108090	     17.25347826	     20.19420032	     89.95437384	      0.00000000	      0.00000000	     -1.26238514	      4.97407271	     -7.80515239	     16.70807652	     89.95437384	      0.00000000	      0.00000000
      0.07000000	      2.29161479	     -0.74508815	     -0.08212602	     -1.13812492	      0.88455477	      1.01461361	     -8.96263618	     -0.29502244	    -15.42017508	    -23.62372685	     -0.41231182	     13.37842035	      0.92252131	     -5.52199117	     18.81680474	      1.05547673	     11.17362715	    -14.61419714	     -0.25506586	     -6.82877592	     -0.42111649	     -7.14450889	    -11.49675888	      0.86455372	      6.45935107	     13.77077503	    -12.66753744	     16.24345125	     20.04989690	     89.95437384	      0.00000000	      0.00000000	     -1.21588148	      5.24063675	     -9.02211504	     16.68031516	     89.95437384	      0.00000000	      0.00000000
      0.08000000	      2.05366860	     -0.67958045	     -0.11153133	     -1.13013446	      0.88492011	      1.01372515	     -8.88139440	     -0.44527989	    -15.07386929	    -24.18192365	     -0.42205419	     12.92952028	      0.85426877	     -5.39112478	     18.80476435	      0.98546419	     10.99020681	    -15.15321504	     -0.26447349	     -6.72766889	     -0.35322968	     -6.98964761	    -11.24453894	      0.67709483	      6.19636324	     13.40056417	    -12.46329990	     16.20428728	     20.38507474	     89.95437384	      0.00000000	      0.00000000	     -1.37062816	      5.36549091	     -9.01940064	     16.89981536	     89.95437384	      0.00000000	      0.00000000
      0.09000000	      2.06023768	      0.04950514	     -0.29932177	     -1.12229075	      0.88589058	      1.01223292	     -8.69923069	     -1.52980250	    -14.82809894	    -25.44075927	     -0.44402501	     11.93560495	     -0.04682829	     -5.09569422	     18.37117889	      0.09450944	     11.04077003	    -15.54587124	     -0.27132664	     -5.52202150	     -0.20687007	     -7.00773388	    -11.22580384	     -0.16675295	      5.88278424	     13.55082176	    -11.98270859	     16.20608847	     19.63649474	     89.95437384	      0.00000000	      0.00000000	     -0.94875750	      5.42564215	     -9.77835368	     16.03675784	     89.95437384	      0.00000000	      0.00000000
      0.10000000	      1.91174971	      0.62733191	     -0.39629943	     -1.11451810	      0.88694713	      1.01097067	     -8.34867072	     -2.31001946	    -14.33882030	    -26.63394829	     -0.46485009	     10.93322228	     -1.28332634	     -4.41451058	     17.82184786	     -0.83394804	     10.09234080	    -15.30358615	     -0.26709797	     -4.85036002	      1.26854066	     -6.36934501	    -11.05428133	     -0.87765519	      5.68900078	     13.30720038	    -11.56026903	     15.40395785	     19.46636043	     89.95437384	      0.00000000	      0.00000000	     -0.87557968	      6.00798975	    -12.91911345	     16.18808159	     89.95437384	      0.00000000	      0.00000000
